<?xml version="1.0" encoding="utf-8"?>
<!-- Generator: Adobe Illustrator 24.1.2, SVG Export Plug-In . SVG Version: 6.00 Build 0)  -->
<svg version="1.1" id="Capa_1" xmlns="http://www.w3.org/2000/svg" xmlns:xlink="http://www.w3.org/1999/xlink" x="0px" y="0px"
	 viewBox="0 0 100 100" style="enable-background:new 0 0 100 100;" xml:space="preserve">
<style type="text/css">
	.st0{fill:#1A475A;}
</style>
<g>
	<path class="st0" d="M57.1,77.1c0.5-0.5,0.9-1.1,1.3-1.6l38.8-38.8c3.8-3.8,3.8-9.9,0-13.7c-3.8-3.8-9.9-3.8-13.7,0L50.1,56.4
		L16.5,22.9c-3.8-3.8-9.9-3.8-13.7,0C0.9,24.8,0,27.2,0,29.7c0,2.5,0.9,5,2.8,6.8l38.9,38.9c0.4,0.6,0.8,1.1,1.3,1.6
		c1.9,1.9,4.5,2.9,7,2.8C52.6,80,55.2,79.1,57.1,77.1z"/>
</g>
</svg>
