<?xml version="1.0" encoding="utf-8"?>
<!-- Generator: Adobe Illustrator 24.1.2, SVG Export Plug-In . SVG Version: 6.00 Build 0)  -->
<svg version="1.1" xmlns="http://www.w3.org/2000/svg" xmlns:xlink="http://www.w3.org/1999/xlink" x="0px" y="0px"
	 viewBox="0 0 512 512" style="enable-background:new 0 0 512 512;" xml:space="preserve">
<style type="text/css">
	.st0{fill:url(#SVGID_1_);}
	.st1{fill:url(#SVGID_2_);}
	.st2{fill:url(#SVGID_3_);}
	.st3{fill:url(#SVGID_4_);}
	.st4{fill:url(#SVGID_5_);}
	.st5{fill:url(#SVGID_6_);}
</style>
<g id="Capa_1">
	<g>
		<g>
			<g>
				<linearGradient id="SVGID_1_" gradientUnits="userSpaceOnUse" x1="120.9404" y1="124.7718" x2="409.8789" y2="413.7104">
					<stop  offset="0" style="stop-color:#7CB6AA"/>
					<stop  offset="1" style="stop-color:#1A475A"/>
				</linearGradient>
				<path class="st0" d="M402.4,110.5H220.1c-15,0.8-26.6,13.5-26,28.6v179.4c0,0.1,0,0.2,0,0.2c0,0.6,0.1,1.3,0.4,1.9l0,0.1l0,0
					l13.5,31.1c1.7,4,5.5,6.6,9.8,6.6h4.8v22.9c0,2,0.4,3.9,1.1,5.7h-69.6v-48c0-9.5-7.7-17.1-17.1-17.1v-97.5
					c23.9-3,41.4-24.1,39.9-48.2s-21.5-42.8-45.6-42.8s-44.1,18.8-45.6,42.8c-1.5,24.1,16,45.2,39.9,48.2v97.5
					c-9.5,0-17.1,7.7-17.1,17.1v48H91.3c-3.2,0-5.7,2.6-5.7,5.7s2.6,5.7,5.7,5.7h331.4c3.2,0,5.7-2.6,5.7-5.7c0-3.2-2.6-5.7-5.7-5.7
					h-23.9c0.7-1.8,1-3.8,1.1-5.7v-22.9h4.8c4.3-0.1,8.1-2.7,9.8-6.6l13.5-31.1l0,0c0,0,0-0.1,0-0.1c0.2-0.6,0.4-1.2,0.4-1.9
					c0-0.1,0-0.1,0-0.2V139.1C429.1,124,417.5,111.3,402.4,110.5z M96.5,178.8c0-19,15.4-34.4,34.4-34.4s34.4,15.4,34.4,34.4
					s-15.4,34.4-34.4,34.4C111.9,213.2,96.5,197.8,96.5,178.8z M142.7,387.1h-22.9v-48c0-3.2,2.6-5.7,5.7-5.7H137
					c3.2,0,5.7,2.6,5.7,5.7V387.1z M257,381.4c0,3.2-2.6,5.7-5.7,5.7h-11.4c-3.2,0-5.7-2.6-5.7-5.7v-22.9H257V381.4z M267.4,387.1
					c0.7-1.8,1-3.8,1.1-5.7v-22.9h85.7v22.9c0,2,0.4,3.9,1.1,5.7H267.4z M388.4,381.4c0,3.2-2.6,5.7-5.7,5.7h-11.4
					c-3.2,0-5.7-2.6-5.7-5.7v-22.9h22.9L388.4,381.4L388.4,381.4z M404,347.1H218.5l-9.9-22.9H414L404,347.1z M285.6,312.8v-11.4
					c0-3.2,2.6-5.7,5.7-5.7h40c3.2,0,5.7,2.6,5.7,5.7v11.4H285.6z M417,139.1v173.7h-68.6v-11.4c0-9.5-7.7-17.1-17.1-17.1h-40
					c-9.5,0-17.1,7.7-17.1,17.1v11.4h-68.6V139.1c-0.6-8.7,5.8-16.4,14.5-17.1h182.3C411.2,122.7,417.6,130.4,417,139.1z"/>
				<linearGradient id="SVGID_2_" gradientUnits="userSpaceOnUse" x1="259.1849" y1="100.7462" x2="363.7564" y2="205.3177">
					<stop  offset="0" style="stop-color:#7CB6AA"/>
					<stop  offset="1" style="stop-color:#1A475A"/>
				</linearGradient>
				<path class="st1" d="M388.9,133H234.1c-9.5,0-17.2,7.7-17.2,17.2v5.7c0,9.5,7.7,17.2,17.2,17.2h154.8c9.5,0,17.2-7.7,17.2-17.2
					v-5.7C406.1,140.7,398.4,133,388.9,133z M394.6,155.9c0,3.2-2.6,5.7-5.7,5.7H234.1c-3.2,0-5.7-2.6-5.7-5.7v-5.7
					c0-3.2,2.6-5.7,5.7-5.7h154.8c3.2,0,5.7,2.6,5.7,5.7V155.9z"/>
				<linearGradient id="SVGID_3_" gradientUnits="userSpaceOnUse" x1="223.7111" y1="262.3715" x2="256.0317" y2="294.6921">
					<stop  offset="0" style="stop-color:#7CB6AA"/>
					<stop  offset="1" style="stop-color:#1A475A"/>
				</linearGradient>
				<path class="st2" d="M239.9,255.7c-12.6,0-22.9,10.2-22.9,22.9c0,12.6,10.2,22.8,22.9,22.9c12.6,0,22.9-10.2,22.9-22.9
					C262.7,265.9,252.5,255.7,239.9,255.7z M239.9,290c-6.3,0-11.4-5.1-11.4-11.4c0-6.3,5.1-11.4,11.4-11.4
					c6.3,0,11.4,5.1,11.4,11.4S246.2,290,239.9,290z"/>
				<linearGradient id="SVGID_4_" gradientUnits="userSpaceOnUse" x1="366.5436" y1="262.3788" x2="398.8642" y2="294.6993">
					<stop  offset="0" style="stop-color:#7CB6AA"/>
					<stop  offset="1" style="stop-color:#1A475A"/>
				</linearGradient>
				<path class="st3" d="M382.7,255.7c-12.6,0-22.9,10.2-22.9,22.9c0,12.6,10.2,22.9,22.9,22.9c12.6,0,22.9-10.2,22.9-22.9
					C405.5,265.9,395.3,255.7,382.7,255.7z M382.7,290c-6.3,0-11.4-5.1-11.4-11.4s5.1-11.4,11.4-11.4c6.3,0,11.4,5.1,11.4,11.4
					C394.1,284.8,389,290,382.7,290z"/>
				<linearGradient id="SVGID_5_" gradientUnits="userSpaceOnUse" x1="254.3121" y1="157.5507" x2="368.2633" y2="271.5019">
					<stop  offset="0" style="stop-color:#7CB6AA"/>
					<stop  offset="1" style="stop-color:#1A475A"/>
				</linearGradient>
				<path class="st4" d="M388.4,184.8H234.2c-9.5,0-17.1,7.7-17.1,17.1v25.2c0,9.5,7.7,17.1,17.1,17.1h154.3
					c9.5,0,17.1-7.7,17.1-17.1v-25.2C405.6,192.5,397.9,184.8,388.4,184.8z M394.1,227.1c0,3.2-2.6,5.7-5.7,5.7H234.2
					c-3.2,0-5.7-2.6-5.7-5.7v-25.2c0-3.2,2.6-5.7,5.7-5.7h154.3c3.2,0,5.7,2.6,5.7,5.7V227.1z"/>
			</g>
		</g>
	</g>
</g>
<g id="Layer_2">
	<linearGradient id="SVGID_6_" gradientUnits="userSpaceOnUse" x1="75.4807" y1="74.4807" x2="437.5193" y2="436.5193">
		<stop  offset="0" style="stop-color:#7CB6AA"/>
		<stop  offset="1" style="stop-color:#1A475A"/>
	</linearGradient>
	<path class="st5" d="M256.5,11.5c32.9,0,64.9,6.4,95,19.2C380.5,43,406.6,60.6,429,83c22.4,22.4,40,48.5,52.3,77.6
		c12.7,30.1,19.2,62,19.2,95s-6.4,64.9-19.2,95C469,379.5,451.4,405.6,429,428c-22.4,22.4-48.5,40-77.6,52.3
		c-30.1,12.7-62,19.2-95,19.2s-64.9-6.4-95-19.2C132.5,468,106.4,450.4,84,428c-22.4-22.4-40-48.5-52.3-77.6
		c-12.7-30.1-19.2-62-19.2-95s6.4-64.9,19.2-95C44,131.5,61.6,105.4,84,83c22.4-22.4,48.5-40,77.6-52.3
		C191.6,17.9,223.6,11.5,256.5,11.5 M256.5-0.5c-141.4,0-256,114.6-256,256s114.6,256,256,256s256-114.6,256-256
		S397.9-0.5,256.5-0.5L256.5-0.5z"/>
</g>
</svg>
