<?xml version="1.0" encoding="utf-8"?>
<!-- Generator: Adobe Illustrator 24.1.2, SVG Export Plug-In . SVG Version: 6.00 Build 0)  -->
<svg version="1.1" xmlns="http://www.w3.org/2000/svg" xmlns:xlink="http://www.w3.org/1999/xlink" x="0px" y="0px"
	 viewBox="0 0 512 512" style="enable-background:new 0 0 512 512;" xml:space="preserve">
<style type="text/css">
	.st0{fill:url(#SVGID_1_);}
	.st1{fill:url(#SVGID_2_);}
</style>
<g id="Layer_3">
	<linearGradient id="SVGID_1_" gradientUnits="userSpaceOnUse" x1="84.767" y1="255.8903" x2="428.767" y2="255.8903">
		<stop  offset="0" style="stop-color:#7CB6AA"/>
		<stop  offset="1" style="stop-color:#1A475A"/>
	</linearGradient>
	<path class="st0" d="M420.4,198.8c-0.1-0.1-0.2-0.1-0.2-0.2c-3.3-2.3-7.2-3.6-11.5-3.6H220.5c-4,0-7.8,1.2-10.9,3.2
		c-0.2,0.1-0.5,0.3-0.7,0.5c-5.2,3.7-8.5,9.7-8.5,16.5v44.1l-17.9-17.9c-1.6-1.6-2.4-3.6-2.4-5.8c0-2.2,0.9-4.3,2.4-5.8l2.3-2.3
		c10.2-10.2,10.2-26.7,0-36.9l-35.4-35.4c-10.2-10.2-26.7-10.2-36.9,0l-8.5,8.5c-25.6,25.6-25.6,67.3,0,92.9l23.1,23.1c0,0,0,0,0,0
		l65.4,65.4c12.8,12.8,29.6,19.2,46.5,19.2s33.7-6.4,46.5-19.2l5-5h118.2c11.1,0,20.2-9,20.2-20.2V215.1
		C428.8,208.4,425.4,202.4,420.4,198.8z M398.8,208.4L314.5,269l-84-60.6H398.8z M213.7,215.1c0-0.7,0.1-1.4,0.3-2.1l57.2,41.3
		l-10.5,12.3l-2.3-2.3c-10.2-10.2-26.7-10.2-36.9,0l-2.3,2.3c-1.5,1.6-3.6,2.3-5.6,2.4V215.1z M122,164.6c4.9-4.9,12.9-4.9,17.8,0
		l35.4,35.4c4.9,4.9,4.9,12.9,0,17.8l-2.3,2.3c-0.8,0.8-1.6,1.8-2.3,2.7l-53.8-53.1L122,164.6z M202,335.6l-78-78c0,0,0,0,0,0
		L113.5,247c-18.3-18.3-20.2-46.8-5.6-67.2l58.9,58.2c0.6,4.8,2.7,9.3,6.2,12.8l25.3,25.3c0.7,0.7,1.4,1.3,2.1,1.8
		c3,2.3,6.5,3.8,10.1,4.3l3.3,3.3l16.7,16.5l9.6,9.5l15.2,15.1l13.6,13.4l0.8,0.8C249.2,355.7,220.4,353.9,202,335.6z M284.8,326.7
		c-0.1,0.1-0.2,0.3-0.4,0.4l-4.8,4.8l-5.3-5.2l-25.6-25.3l-9.6-9.5l-13.3-13.2c1.1-0.7,2.1-1.6,3-2.5l2.3-2.3
		c4.9-4.9,12.9-4.9,17.8,0l3,3l9.5,9.5l22.9,22.9c2.4,2.4,3.7,5.6,3.7,8.9C288.1,321.3,286.9,324.3,284.8,326.7z M300.1,326.7
		c0.9-2.7,1.4-5.6,1.4-8.5c0-7-2.7-13.5-7.6-18.4l-23.6-23.6l11.9-13.9l28.4,20.5c1.2,0.8,2.6,1.3,3.9,1.3c1.4,0,2.8-0.4,3.9-1.3
		l28.4-20.5l55.1,64.4H300.1z M415.3,319.9L415.3,319.9c0,0.5-0.1,1-0.2,1.4l-57.3-67l57.2-41.2c0.2,0.6,0.3,1.2,0.3,1.9V319.9z"/>
</g>
<g id="Layer_2">
	<linearGradient id="SVGID_2_" gradientUnits="userSpaceOnUse" x1="75.4807" y1="74.4807" x2="437.5193" y2="436.5193">
		<stop  offset="0" style="stop-color:#7CB6AA"/>
		<stop  offset="1" style="stop-color:#1A475A"/>
	</linearGradient>
	<path class="st1" d="M256.5,11.5c32.9,0,64.9,6.4,95,19.2C380.5,43,406.6,60.6,429,83c22.4,22.4,40,48.5,52.3,77.6
		c12.7,30.1,19.2,62,19.2,95s-6.4,64.9-19.2,95C469,379.5,451.4,405.6,429,428c-22.4,22.4-48.5,40-77.6,52.3
		c-30.1,12.7-62,19.2-95,19.2s-64.9-6.4-95-19.2C132.5,468,106.4,450.4,84,428c-22.4-22.4-40-48.5-52.3-77.6
		c-12.7-30.1-19.2-62-19.2-95s6.4-64.9,19.2-95C44,131.5,61.6,105.4,84,83c22.4-22.4,48.5-40,77.6-52.3
		C191.6,17.9,223.6,11.5,256.5,11.5 M256.5-0.5c-141.4,0-256,114.6-256,256s114.6,256,256,256s256-114.6,256-256
		S397.9-0.5,256.5-0.5L256.5-0.5z"/>
</g>
</svg>
