<?xml version="1.0" encoding="utf-8"?>
<!-- Generator: Adobe Illustrator 24.1.2, SVG Export Plug-In . SVG Version: 6.00 Build 0)  -->
<svg version="1.1" id="Capa_1" xmlns="http://www.w3.org/2000/svg" xmlns:xlink="http://www.w3.org/1999/xlink" x="0px" y="0px"
	 viewBox="0 0 100 100" style="enable-background:new 0 0 100 100;" xml:space="preserve">
<style type="text/css">
	.st0{fill:#1A475A;}
</style>
<g>
	<g>
		<path class="st0" d="M98.3,44.7L53.5,3.8c-2-1.8-4.9-1.8-6.9,0L1.7,44.7c-1.6,1.4-2.1,3.7-1.3,5.6c0.8,2,2.6,3.3,4.8,3.3h7.2v41
			c0,1.6,1.3,2.9,2.9,2.9h24.6c1.6,0,2.9-1.3,2.9-2.9V69.7h14.5v24.9c0,1.6,1.3,2.9,2.9,2.9h24.6c1.6,0,2.9-1.3,2.9-2.9v-41h7.2
			c2.1,0,4-1.3,4.8-3.3C100.4,48.4,99.9,46.1,98.3,44.7z"/>
	</g>
</g>
<g>
	<g>
		<path class="st0" d="M86.9,8.3H67.2L89.9,29V11.3C89.9,9.7,88.6,8.3,86.9,8.3z"/>
	</g>
</g>
</svg>
