<?xml version="1.0" encoding="utf-8"?>
<!-- Generator: Adobe Illustrator 24.1.2, SVG Export Plug-In . SVG Version: 6.00 Build 0)  -->
<svg version="1.1" id="Artwork" xmlns="http://www.w3.org/2000/svg" xmlns:xlink="http://www.w3.org/1999/xlink" x="0px" y="0px"
	 viewBox="0 186 512 304" style="enable-background:new 0 186 512 304;" xml:space="preserve">
<style type="text/css">
	.st0{fill:#E1E0DC;}
</style>
<g>
	<circle class="st0" cx="99.3" cy="273.5" r="15.3"/>
	<path class="st0" d="M162,288.8L162,288.8c8.5,0,15.3-6.9,15.3-15.3c0-8.5-6.9-15.3-15.3-15.3l0,0c-8.5,0-15.3,6.9-15.3,15.3
		C146.7,282,153.5,288.8,162,288.8z"/>
	<circle class="st0" cx="224.6" cy="273.5" r="15.3"/>
	<circle class="st0" cx="287.3" cy="273.5" r="15.3"/>
	<circle class="st0" cx="350" cy="273.5" r="15.3"/>
	<circle class="st0" cx="412.7" cy="273.5" r="15.3"/>
	<circle class="st0" cx="130.7" cy="338.5" r="15.3"/>
	<circle class="st0" cx="193.3" cy="338.5" r="15.3"/>
	<circle class="st0" cx="256" cy="338.5" r="15.3"/>
	<circle class="st0" cx="318.6" cy="338.5" r="15.3"/>
	<circle class="st0" cx="381.3" cy="338.5" r="15.3"/>
	<path class="st0" d="M134.5,403.4c0,6.8,5.5,12.3,12.3,12.3h218.6c6.8,0,12.3-5.5,12.3-12.3s-5.5-12.3-12.3-12.3H146.7
		C139.9,391.2,134.5,396.6,134.5,403.4z"/>
	<path class="st0" d="M472.7,188.8H267.3h-24.5H39.3c-15.6,0-28.3,12-28.3,26.7v246c0,14.7,12.7,26.7,28.3,26.7h433.4
		c15.6,0,28.3-12,28.3-26.7v-246C501,200.8,488.3,188.8,472.7,188.8z M476.5,461.5c0,0.9-1.5,2.2-3.8,2.2H39.3
		c-2.3,0-3.8-1.3-3.8-2.2v-246c0-0.9,1.5-2.2,3.8-2.2h433.4c2.4-0.1,3.8,1.4,3.8,2.2V461.5z"/>
</g>
</svg>
