<?xml version="1.0" encoding="utf-8"?>
<!-- Generator: Adobe Illustrator 24.1.2, SVG Export Plug-In . SVG Version: 6.00 Build 0)  -->
<svg version="1.1" xmlns="http://www.w3.org/2000/svg" xmlns:xlink="http://www.w3.org/1999/xlink" x="0px" y="0px"
	 viewBox="0 0 512 512" style="enable-background:new 0 0 512 512;" xml:space="preserve">
<style type="text/css">
	.st0{fill:url(#SVGID_1_);}
	.st1{fill:url(#SVGID_2_);}
	.st2{fill:url(#SVGID_3_);}
</style>
<g id="Layer_3">
	<g>
		<linearGradient id="SVGID_1_" gradientUnits="userSpaceOnUse" x1="85" y1="254.6452" x2="429" y2="254.6452">
			<stop  offset="0" style="stop-color:#7CB6AA"/>
			<stop  offset="1" style="stop-color:#1A475A"/>
		</linearGradient>
		<path class="st0" d="M401.3,188.2c-13.4,0-24.6,9.5-27.2,22.2h-53.3l8.3-11.1c7.2-9.5,11.1-21.3,11.1-33.2
			c0-30.5-24.9-55.4-55.5-55.4s-55.5,24.8-55.5,55.4c0,11.9,3.9,23.7,11.1,33.2l8.3,11.1H139.9c-2.6-12.6-13.8-22.2-27.2-22.2
			c-15.3,0-27.7,12.4-27.7,27.7V371c0,15.3,12.4,27.7,27.7,27.7h288.5c15.3,0,27.7-12.4,27.7-27.7V215.9
			C429,200.6,416.6,188.2,401.3,188.2z M373.5,343.3h-22.2v-22.2h22.2V343.3z M373.5,310h-22.2c-6.1,0-11.1,5-11.1,11.1v22.2
			c0,6.1,5,11.1,11.1,11.1h22.2v11.1h-22.2c-6.1,0-11.1,5-11.1,11.1v11.1h-11.1v-60.9c0-9.2-7.5-16.6-16.6-16.6h-49.9
			c-9.2,0-16.6,7.5-16.6,16.6v60.9h-11.1v-72c0-3.1-2.5-5.5-5.5-5.5h-38.8c-3.1,0-5.5,2.5-5.5,5.5v4.4c0,24.1-6.9,47.4-19.7,67.6
			h-13.9c14.8-21.3,22.6-46.1,22.6-72c0-3.1-2.5-5.5-5.5-5.5h-27.7V299h16.6c9.2,0,16.6-7.5,16.6-16.6v-15.7c0-4.8,3.1-9,7.6-10.5
			l27.2-9c9.1-3,15.2-11.5,15.2-21v-4.6h11.1v9.3c0,11.9-7.6,22.5-19,26.3l-23.4,7.8c-4.5,1.5-7.6,5.7-7.6,10.5v7.1
			c0,9.2,7.5,16.6,16.6,16.6h111c9.2,0,16.6-7.5,16.6-16.6v-60.9h11.1v60.9c0,9.2,7.5,16.6,16.6,16.6h16.6V310z M318,387.6h-61
			v-60.9c0-3.1,2.5-5.5,5.5-5.5h49.9c3.1,0,5.5,2.5,5.5,5.5V387.6z M223.7,387.6h-45.6c11.5-20.3,17.6-43,17.8-66.5h27.7V387.6z
			 M140.5,287.9v-66.5h72.1v4.6c0,4.8-3.1,9-7.6,10.5l-27.2,9c-9.1,3-15.2,11.5-15.2,21v15.7c0,3.1-2.5,5.5-5.5,5.5H140.5z
			 M373.5,287.9h-16.6c-3.1,0-5.5-2.5-5.5-5.5v-60.9h22.2V287.9z M284.7,121.7c24.5,0,44.4,19.9,44.4,44.3c0,9.5-3.2,19-8.9,26.6
			l-35.5,47.3l-35.5-47.3c-5.7-7.6-8.9-17.1-8.9-26.6C240.4,141.6,260.3,121.7,284.7,121.7z M301.4,249.1c0,6-7.6,11.1-16.6,11.1
			s-16.6-5.1-16.6-11.1c0-2.7,1.6-5.2,4.3-7.2l7.9,10.6c1,1.4,2.7,2.2,4.4,2.2s3.4-0.8,4.4-2.2l7.9-10.6
			C299.8,243.9,301.4,246.4,301.4,249.1L301.4,249.1z M265.7,233c-5.5,4.1-8.7,9.9-8.7,16.1c0,12.2,12.4,22.2,27.7,22.2
			c15.3,0,27.7-9.9,27.7-22.2c0-6.2-3.2-12-8.7-16.1l8.7-11.6h5.5v60.9c0,3.1-2.5,5.5-5.5,5.5h-111c-3.1,0-5.5-2.5-5.5-5.5v-7.1
			l23.4-7.8c15.9-5.3,26.6-20.1,26.6-36.8v-9.3H257L265.7,233z M96.1,215.9c0-9.2,7.5-16.6,16.6-16.6s16.6,7.5,16.6,16.6v132.9
			c-4.6-3.5-10.4-5.5-16.6-5.5s-12,2.1-16.6,5.5V215.9z M96.1,371c0-9.2,7.5-16.6,16.6-16.6s16.6,7.5,16.6,16.6
			c0,3.1,2.5,5.5,5.5,5.5c3.1,0,5.5-2.5,5.5-5.5v-49.8h22.1c-1,22.2-8.4,43.4-21.4,61.6l-3.5,4.9h-24.9
			C103.6,387.6,96.1,380.1,96.1,371L96.1,371z M401.3,387.6h-49.9v-11.1h27.7c3.1,0,5.5-2.5,5.5-5.5c0-9.2,7.5-16.6,16.6-16.6
			s16.6,7.5,16.6,16.6S410.4,387.6,401.3,387.6z M417.9,348.8c-4.6-3.5-10.4-5.5-16.6-5.5c-6.2,0-12,2.1-16.6,5.5V215.9
			c0-9.2,7.5-16.6,16.6-16.6s16.6,7.5,16.6,16.6V348.8z"/>
		<linearGradient id="SVGID_2_" gradientUnits="userSpaceOnUse" x1="257" y1="160.4913" x2="312.4839" y2="160.4913">
			<stop  offset="0" style="stop-color:#7CB6AA"/>
			<stop  offset="1" style="stop-color:#1A475A"/>
		</linearGradient>
		<path class="st1" d="M284.7,188.2c15.3,0,27.7-12.4,27.7-27.7s-12.4-27.7-27.7-27.7S257,145.2,257,160.5S269.4,188.2,284.7,188.2z
			 M284.7,143.9c9.2,0,16.6,7.5,16.6,16.6s-7.5,16.6-16.6,16.6s-16.6-7.5-16.6-16.6S275.6,143.9,284.7,143.9z"/>
	</g>
</g>
<g id="Layer_2">
	<linearGradient id="SVGID_3_" gradientUnits="userSpaceOnUse" x1="0" y1="256" x2="512" y2="256">
		<stop  offset="0" style="stop-color:#7CB6AA"/>
		<stop  offset="1" style="stop-color:#1A475A"/>
	</linearGradient>
	<path class="st2" d="M256,12c32.9,0,64.9,6.4,95,19.2c29.1,12.3,55.1,29.9,77.6,52.3c22.4,22.4,40,48.5,52.3,77.6
		c12.7,30.1,19.2,62,19.2,95s-6.4,64.9-19.2,95c-12.3,29.1-29.9,55.1-52.3,77.6c-22.4,22.4-48.5,40-77.6,52.3
		c-30.1,12.7-62,19.2-95,19.2s-64.9-6.4-95-19.2c-29.1-12.3-55.1-29.9-77.6-52.3c-22.4-22.4-40-48.5-52.3-77.6
		c-12.7-30.1-19.2-62-19.2-95s6.4-64.9,19.2-95c12.3-29.1,29.9-55.1,52.3-77.6c22.4-22.4,48.5-40,77.6-52.3
		C191.1,18.4,223.1,12,256,12 M256,0C114.6,0,0,114.6,0,256s114.6,256,256,256s256-114.6,256-256S397.4,0,256,0L256,0z"/>
</g>
</svg>
