<?xml version="1.0" encoding="utf-8"?>
<!-- Generator: Adobe Illustrator 24.1.2, SVG Export Plug-In . SVG Version: 6.00 Build 0)  -->
<svg version="1.1" id="Capa_1" xmlns="http://www.w3.org/2000/svg" xmlns:xlink="http://www.w3.org/1999/xlink" x="0px" y="0px"
	 viewBox="0 0 100 100" style="enable-background:new 0 0 100 100;" xml:space="preserve">
<style type="text/css">
	.st0{fill:#444444;}
</style>
<g>
	<g>
		<path class="st0" d="M98.1,88.2L80.7,70.8c5.2-7.3,8.2-16.1,8.2-25.7c0-24.5-19.9-44.4-44.4-44.4S0,20.6,0,45.1
			c0,24.5,19.9,44.4,44.4,44.4c10.2,0,19.6-3.5,27.2-9.3l17.2,17.2c1.3,1.3,3,1.9,4.6,1.9c1.7,0,3.3-0.6,4.6-1.9
			C100.6,94.9,100.6,90.7,98.1,88.2z M10.5,45.1c0-18.7,15.2-34,34-34s34,15.2,34,34c0,7.8-2.7,15-7.1,20.7
			c-1.5,1.9-3.1,3.6-4.9,5.2c-5.9,5-13.6,8.1-21.9,8.1C25.7,79.1,10.5,63.8,10.5,45.1z"/>
	</g>
</g>
</svg>
