<?xml version="1.0" encoding="utf-8"?>
<!-- Generator: Adobe Illustrator 24.1.2, SVG Export Plug-In . SVG Version: 6.00 Build 0)  -->
<svg version="1.1" id="Capa_1" xmlns="http://www.w3.org/2000/svg" xmlns:xlink="http://www.w3.org/1999/xlink" x="0px" y="0px"
	 viewBox="0 0 512 512" style="enable-background:new 0 0 512 512;" xml:space="preserve">
<style type="text/css">
	.st0{fill:#FFFFFF;}
</style>
<g>
	<g>
		<path class="st0" d="M509.2,247.3C504.6,240.9,395.7,91,257,91C118.3,91,7.4,240.9,2.8,247.3c-3.8,5.2-3.8,12.3,0,17.5
			C7.4,271.1,118.3,421,257,421c138.7,0,247.6-149.9,252.2-156.3C512.9,259.5,512.9,252.5,509.2,247.3z M257,361
			c-57.9,0-107-47.1-107-105s49.1-105,107-105s105,47.1,105,105S314.9,361,257,361z"/>
	</g>
</g>
<g>
	<g>
		<path class="st0" d="M257,211c-24.8,0-47,20.2-47,45c0,24.8,22.2,45,47,45c24.8,0,45-20.2,45-45C302,231.2,281.8,211,257,211z"/>
	</g>
</g>
</svg>
